<svg xmlns="http://www.w3.org/2000/svg" xmlns:xlink="http://www.w3.org/1999/xlink" version="1.1" x="0px" y="0px" viewBox="0 0 32 32" enable-background="new 0 0 32 32" xml:space="preserve"><g display="none"><path display="inline" d="M28,11h-3.586l-1.707-1.707c-0.211-0.213-0.527-0.32-0.805-0.289c-0.299,0.029-0.568,0.191-0.734,0.441   l-2.945,4.418l-3.295-8.234c-0.301-0.76-1.555-0.76-1.855,0l-3.174,7.932l-1.004-2.008C8.725,11.213,8.379,11,8,11H4   c-0.553,0-1,0.447-1,1c0,0.553,0.447,1,1,1h3.383l1.723,3.447c0.176,0.352,0.555,0.59,0.936,0.551   c0.395-0.016,0.74-0.262,0.887-0.627L14,8.691l3.072,7.68c0.137,0.344,0.455,0.584,0.824,0.623C17.932,16.998,17.965,17,18,17   c0.332,0,0.645-0.166,0.832-0.445l3.324-4.986l1.137,1.139C23.48,12.894,23.734,13,24,13h4c0.553,0,1-0.447,1-1   C29,11.447,28.553,11,28,11z M28,0H4C1.795,0,0,1.793,0,4v14c0,2.205,1.795,4,4,4h7.334L8,32h2l5-10h2l5,10h2l-3.334-10H28   c2.205,0,4-1.795,4-4V4C32,1.793,30.205,0,28,0z M30,18c0,1.104-0.895,2-2,2H4c-1.105,0-2-0.896-2-2V4c0-1.105,0.895-2,2-2h24   c1.105,0,2,0.895,2,2V18z"></path></g><g display="none"><path display="inline" d="M31.592,4.652L27.842,8.4c-0.779,0.781-2.045,0.782-2.828,0L23.6,6.986c-0.781-0.781-0.781-2.047,0-2.828   l3.748-3.748c-2.463-0.87-5.312-0.344-7.283,1.627s-2.498,4.818-1.627,7.282L9.32,18.437c-2.465-0.871-5.314-0.344-7.285,1.627   s-2.496,4.82-1.627,7.284l3.75-3.749c0.779-0.78,2.045-0.781,2.828,0L8.4,25.014c0.781,0.781,0.781,2.047,0,2.828L4.652,31.59   c2.463,0.87,5.312,0.344,7.283-1.627c1.971-1.971,2.498-4.819,1.627-7.283l9.117-9.118c2.465,0.871,5.313,0.345,7.285-1.626   C31.936,9.965,32.461,7.116,31.592,4.652z"></path></g><g display="none"><path display="inline" fill-rule="evenodd" clip-rule="evenodd" d="M10,12c0.602-2.014,2.334-3.834,2.334-3.834C16,3.834,10,2,10,2   c1.789,2.486,0,4,0,4C6,10,10,12,10,12z M27,14c-0.356,0-0.689,0.072-1.004,0.186C25.996,14.121,26,14.064,26,14H2c0,10,4,14,4,14   c0,1.105,3.582,2,8,2s8-0.895,8-2c0,0,2.465-2.488,3.524-8.404C25.961,19.846,26.461,20,27,20c1.656,0,3-1.344,3-3   C30,15.344,28.656,14,27,14z M27,18c-0.553,0-1-0.447-1-1c0-0.553,0.447-1,1-1s1,0.447,1,1C28,17.553,27.553,18,27,18z M18,12   c4.732-4.732,2.445-6.117,1.266-6.492C20.024,6.033,18,8,18,8C16,10.291,18,12,18,12z"></path></g><g><path fill-rule="evenodd" clip-rule="evenodd" d="M26,5v2h-6V5h-8v2H6V5H0v2v2v2h6V9h6v0.641C6.871,11.188,2.984,15.57,2.201,21H0   v6h2.65h1.824H6v-6H3.951C4.689,16.535,7.83,12.9,12,11.447V13h8v-1.553c4.17,1.453,7.31,5.088,8.049,9.553H26v6h1.525h1.824H32v-6   h-2.201c-0.783-5.43-4.67-9.812-9.799-11.359V9h6v2h6V9V7V5H26z M4,9H2V7h2V9z M4,23v2H2v-2H4z M18,11h-4V7h4V11z M30,23v2h-2v-2   H30z M30,9h-2V7h2V9z"></path></g></svg>